<svg width="34" height="38" viewBox="0 0 34 38" fill="none" xmlns="http://www.w3.org/2000/svg">
<g clip-path="url(#clip0_153_267)">
<path d="M6.03325 20.9349V18.6514C12.6764 17.7242 19.3757 17.2752 26.0811 17.3076C26.0811 17.9139 26.0811 18.5302 26.0215 19.1465C27.9275 18.2867 29.9305 17.6691 31.9852 17.3076C30.6756 13.8643 28.2894 10.9536 25.1936 9.02347C22.0979 7.09332 18.464 6.25055 14.851 6.62482C11.238 6.9991 7.846 8.56967 5.19687 11.095C2.54773 13.6202 0.788168 16.9603 0.18885 20.6014L6.03325 20.9349Z" fill="#FDC305"/>
<path d="M27.0751 24.4813C25.9221 25.7745 25.6935 25.6937 25.6935 27.967C25.6935 28.8865 25.6935 32.9178 25.6935 37.2422C27.9722 35.7125 29.8428 33.6331 31.1383 31.1895C32.4339 28.746 33.1141 26.0143 33.1183 23.2385C33.1052 22.1869 32.9987 21.1385 32.8002 20.1064C30.7409 21.3486 28.8212 22.8156 27.0751 24.4813Z" fill="#FDC305"/>
<path d="M6.3215 25.9867C6.3215 25.9867 2.55444 24.5318 1.16292 24.1377C0.782302 24.0158 0.393699 23.9212 0 23.8548C0.107739 26.7707 0.959743 29.608 2.47233 32.0879C3.98492 34.5679 6.10607 36.6053 8.62745 38L6.3215 25.9867Z" fill="#FDC305"/>
<path d="M26.1308 17.2975C26.1713 11.7189 25.7054 6.1484 24.7393 0.656758C24.7393 0.656758 24.6002 -0.646619 23.8547 0.414269C23.2692 1.67535 22.8674 3.01637 22.662 4.39513C18.4296 4.11805 14.1812 4.23303 9.96928 4.73865C9.18406 2.02076 7.80247 0.757795 7.13653 1.01039C6.47059 1.26298 6.42089 4.35471 6.42089 4.35471L6.09289 18.6009C12.7337 17.6876 19.4297 17.252 26.1308 17.2975V17.2975Z" fill="#F06351"/>
<path d="M12.3349 14.1452C12.3349 14.0542 13.3288 14.8322 13.7363 15.0747C14.1439 15.3172 14.3426 15.4991 14.3426 15.6708C14.3426 15.8426 14.0743 16.0144 13.7165 16.0144C13.3586 16.0144 12.812 15.8931 12.7225 15.7416H13.6568H13.9451C13.3395 15.2863 12.7978 14.7492 12.3349 14.1452V14.1452Z" fill="black"/>
<path d="M19.7696 14.2563L18.6862 15.6001C18.6862 15.6607 18.5172 15.9537 18.8651 15.9032C19.2768 15.8408 19.6825 15.7428 20.0777 15.6102C20.187 15.6102 20.1473 15.4182 19.9684 15.4384C19.7895 15.4587 19.2826 15.489 18.9744 15.5496L19.8093 14.2765C19.8093 14.2765 19.8789 14.1452 19.7696 14.2563Z" fill="black"/>
<path d="M16.6486 20.4095C17.1093 20.2031 17.4902 19.848 17.732 19.3991C18.0103 18.7424 17.732 18.4797 17.2947 18.3887C16.6962 18.2777 16.0785 18.4004 15.5652 18.7323C15.1776 19.096 15.2273 19.4597 15.5155 19.7426C15.8647 20.0116 16.2453 20.2356 16.6486 20.4095V20.4095Z" fill="black"/>
<path d="M16.251 21.6724C16.1396 21.9033 15.9842 22.1094 15.7938 22.2786C15.5107 22.5102 15.1628 22.6446 14.7999 22.6626C14.2769 22.705 13.7568 22.5504 13.3388 22.2281C13.1422 22.1077 12.9646 21.9578 12.812 21.7836C12.7121 21.6715 12.5902 21.582 12.4541 21.5209C12.4541 21.5209 13.1996 25.6634 15.0086 26.3201C16.8176 26.9769 17.1356 25.5623 17.1953 25.1784C17.255 24.0318 16.9708 22.8937 16.3802 21.9149C16.3603 21.6017 16.3504 21.8038 16.251 21.6724Z" fill="#F06351"/>
<path d="M14.6209 22.8242C14.1591 22.7583 13.7153 22.597 13.3171 22.3503C12.9188 22.1035 12.5744 21.7766 12.305 21.3895C12.2918 21.3764 12.2813 21.3606 12.2741 21.3433C12.267 21.3259 12.2633 21.3073 12.2633 21.2885C12.2633 21.2697 12.267 21.251 12.2741 21.2337C12.2813 21.2163 12.2918 21.2006 12.305 21.1874C12.318 21.174 12.3335 21.1633 12.3505 21.156C12.3676 21.1487 12.3859 21.145 12.4044 21.145C12.423 21.145 12.4413 21.1487 12.4584 21.156C12.4754 21.1633 12.4909 21.174 12.5038 21.1874C13.0056 21.8889 13.7591 22.3608 14.6011 22.5009V22.5009C14.9307 22.4757 15.2497 22.3709 15.5315 22.1952C15.8133 22.0194 16.0497 21.7779 16.2212 21.4906L16.3603 21.2986L16.4597 21.5108C16.4597 21.5108 16.8275 22.2786 17.4537 22.3191C18.0799 22.3595 18.4973 21.9048 19.0539 21.0258C19.0669 21.0123 19.0824 21.0017 19.0994 20.9944C19.1165 20.9871 19.1348 20.9833 19.1533 20.9833C19.1718 20.9833 19.1902 20.9871 19.2072 20.9944C19.2243 21.0017 19.2398 21.0123 19.2527 21.0258C19.2849 21.0466 19.3079 21.0792 19.3171 21.1168C19.3264 21.1544 19.3211 21.1941 19.3024 21.2279C18.6663 22.2382 18.0401 22.6828 17.4338 22.6424C17.2032 22.6083 16.9832 22.5215 16.7904 22.3885C16.5976 22.2555 16.4369 22.0797 16.3206 21.8745C16.1251 22.1518 15.8709 22.3811 15.5768 22.5455C15.2827 22.7098 14.9561 22.8051 14.6209 22.8242V22.8242Z" fill="black"/>
<path d="M26.0811 19.1162C24.2965 20.7567 22.6135 22.508 21.0418 24.36C19.48 26.2051 17.7159 27.8627 15.7839 29.3007C15.5652 28.7652 14.1737 27.7751 14.1737 27.7751C14.1737 27.7751 11.0626 25.6129 9.02503 23.9154C7.92587 22.9731 6.88675 21.9607 5.91398 20.8843L3.92609 20.7732C6.79877 25.0224 11.0032 28.1565 15.8534 29.6645C16.7082 29.523 19.1036 27.7852 20.8927 26.3706C22.9988 24.5337 24.9719 22.5448 26.7968 20.4196C27.2962 19.8245 27.6807 19.1389 27.9299 18.3988C26.8365 18.7929 26.0811 19.1162 26.0811 19.1162Z" fill="#F06351"/>
</g>
<defs>
<clipPath id="clip0_153_267">
<rect width="33.1183" height="38" fill="white"/>
</clipPath>
</defs>
</svg>
